<?xml version="1.0" encoding="UTF-8" standalone="no"?>
<!-- Created with Inkscape (http://www.inkscape.org/) -->

<svg
   xmlns:dc="http://purl.org/dc/elements/1.1/"
   xmlns:cc="http://creativecommons.org/ns#"
   xmlns:rdf="http://www.w3.org/1999/02/22-rdf-syntax-ns#"
   xmlns:svg="http://www.w3.org/2000/svg"
   xmlns="http://www.w3.org/2000/svg"
   xmlns:sodipodi="http://sodipodi.sourceforge.net/DTD/sodipodi-0.dtd"
   xmlns:inkscape="http://www.inkscape.org/namespaces/inkscape"
   id="svg3576"
   sodipodi:docname="Pajarito-rooster.svg"
   viewBox="0 0 554.8103 463.52399"
   version="1.1"
   inkscape:version="0.91 r13725"
   width="554.8103"
   height="463.52399">
  <defs
     id="defs16" />
  <sodipodi:namedview
     id="base"
     bordercolor="#666666"
     inkscape:pageshadow="2"
     inkscape:window-y="0"
     pagecolor="#ffffff"
     inkscape:window-height="452"
     inkscape:window-maximized="0"
     inkscape:zoom="1.095627"
     inkscape:window-x="0"
     showgrid="false"
     borderopacity="1.0"
     inkscape:current-layer="layer1"
     inkscape:cx="103.59313"
     inkscape:cy="143.71903"
     inkscape:window-width="512"
     inkscape:pageopacity="0.0"
     inkscape:document-units="px"
     fit-margin-top="0"
     fit-margin-left="0"
     fit-margin-right="0"
     fit-margin-bottom="0" />
  <g
     id="layer1"
     inkscape:label="Layer 1"
     inkscape:groupmode="layer"
     transform="translate(-123.49338,-8.0064194)">
    <path
       id="path4643"
       d="m 309.26,399.56 0.40923,46.801 -19.088,12.988 19.731,-7.8405 2.5199,11.232 2.8941,-11.199 18.317,8.1529 -17.876,-13.769 0.13754,-46.647 z"
       sodipodi:nodetypes="cccccccccc"
       style="fill:#1a1a1a"
       inkscape:connector-curvature="0" />
    <path
       id="path4620"
       sodipodi:nodetypes="szzssscssssss"
       style="fill:#ff5555"
       inkscape:connector-curvature="0"
       d="M 231.14612,37.777602 C 266.61584,9.5233176 318.95671,-3.8661255 373.55033,21.325461 428.14395,46.517047 433.37382,77.290592 435.70471,103.47213 438.0356,129.65367 354.8074,251.85 402.574,299.34 c 43.455,43.195 80.0768,34.29902 103.8896,11.26121 29.47708,-28.51775 71.91632,-112.83494 84.56422,-122.60776 19.79447,-15.29485 72.23002,-23.6609 87.27587,150.89328 C 649.53902,214.98166 609.63509,194.01702 594.92476,220.98112 580.71137,247.03433 535.3222,361.71161 465.04,386.209 c -39.07582,13.62017 -102.62113,38.34645 -193.3,22.48 -31.06406,-5.43541 -66.39495,-44.68467 -80.88409,-92.25401 -26.85641,-88.17237 -11.93874,-148.7511 -5.54789,-181.7085 8.75193,-45.133381 19.53956,-76.000131 45.8381,-96.948888 z" />
    <path
       id="path4622"
       sodipodi:rx="44.87484"
       sodipodi:ry="44.87484"
       style="fill:#ffffff"
       sodipodi:type="arc"
       d="m 359.86163,122.00977 a 44.87484,44.87484 0 0 1 -44.70097,44.87451 44.87484,44.87484 0 0 1 -45.04737,-44.52676 44.87484,44.87484 0 0 1 44.35189,-45.219555 44.87484,44.87484 0 0 1 45.39106,44.176345"
       sodipodi:open="true"
       sodipodi:cy="122.00977"
       sodipodi:cx="314.98679"
       sodipodi:end="6.2676868"
       sodipodi:start="0" />
    <path
       id="path4625"
       sodipodi:rx="20.503304"
       sodipodi:ry="20.503304"
       style="fill:#ffffff"
       sodipodi:type="arc"
       d="M 244.18827,81.916153 A 20.503304,20.503304 0 0 1 223.76441,102.4193 20.503304,20.503304 0 0 1 203.18228,82.075037 20.503304,20.503304 0 0 1 223.44664,61.414235 20.503304,20.503304 0 0 1 244.18581,81.598395"
       sodipodi:open="true"
       sodipodi:cy="81.916153"
       sodipodi:cx="223.68497"
       sodipodi:end="6.2676868"
       sodipodi:start="0" />
    <path
       id="path4628"
       sodipodi:rx="6.7971711"
       sodipodi:ry="6.7971711"
       style="fill:#333333"
       sodipodi:type="arc"
       sodipodi:start="0"
       sodipodi:open="true"
       sodipodi:cy="100.06562"
       sodipodi:cx="292.15128"
       sodipodi:end="6.2676868"
       d="m 298.94845,100.06562 a 6.7971711,6.7971711 0 0 1 -6.77084,6.79712 6.7971711,6.7971711 0 0 1 -6.8233,-6.74445 6.7971711,6.7971711 0 0 1 6.71796,-6.849382 6.7971711,6.7971711 0 0 1 6.87536,6.691371" />
    <path
       id="path4630"
       sodipodi:rx="4.3809724"
       sodipodi:ry="4.3809724"
       style="fill:#333333"
       sodipodi:type="arc"
       d="m 218.29357,73.26255 a 4.3809724,4.3809724 0 0 1 -4.364,4.38094 4.3809724,4.3809724 0 0 1 -4.39781,-4.346991 4.3809724,4.3809724 0 0 1 4.32991,-4.414625 4.3809724,4.3809724 0 0 1 4.43137,4.312781"
       sodipodi:open="true"
       sodipodi:cy="73.26255"
       sodipodi:cx="213.9126"
       sodipodi:end="6.2676868"
       sodipodi:start="0" />
    <path
       id="path4633"
       sodipodi:nodetypes="scccss"
       style="fill:#2b0000;fill-opacity:0.47340004"
       inkscape:connector-curvature="0"
       d="m 308.67,256.67 c 29.707,1.4764 61.917,53.447 104.92,72.225 -18.067,0.87158 -29.361,-2.1368 -37.386,-6.9224 5.6504,8.9871 19.604,15.332 51.657,23.587 -41.031,2.6345 -113.8,9.2354 -138.73,-30.547 -9.6376,-15.377 -1.1762,-59.373 19.536,-58.343 z" />
    <path
       id="path4635"
       sodipodi:nodetypes="ccccc"
       style="fill:#ffd42a"
       inkscape:connector-curvature="0"
       d="m 177.9328,127.10092 -54.43942,26.78253 71.06,7.8455 -1.00949,-28.53768 z" />
    <path
       id="path4637"
       sodipodi:nodetypes="cccccccccc"
       style="fill:#1a1a1a"
       inkscape:connector-curvature="0"
       d="m 354.66,408.35 0.40924,46.801 -19.088,12.988 19.731,-7.8406 2.5199,11.232 2.894,-11.199 18.317,8.1529 -17.876,-13.769 0.13754,-46.647 z" />
    <path
       id="path4647"
       sodipodi:nodetypes="cssccc"
       style="fill:#ff8080"
       inkscape:connector-curvature="0"
       d="m 177.96413,257.90053 c 0,0 13.23962,-26.18639 42.4286,-18.72985 33.58263,8.57831 58.73528,31.793 64.16824,87.85039 4.07241,42.01443 -21.6092,79.19593 -21.6092,79.19593 -69.76972,-23.50849 -79.41534,-101.9206 -84.99023,-148.32112 z"
       inkscape:transform-center-x="31.835657"
       inkscape:transform-center-y="-83.525438" />
    <path
       id="path4635-8"
       sodipodi:nodetypes="ccccc"
       style="fill:#ffd42a"
       inkscape:connector-curvature="0"
       d="m 196.7405,121.47057 -68.55513,-17.5737 46.10833,42.9244 16.97413,1.13356 z" />
  </g>
  <metadata
     id="metadata16">
    <rdf:RDF>
      <cc:Work>
        <dc:format>image/svg+xml</dc:format>
        <dc:type
           rdf:resource="http://purl.org/dc/dcmitype/StillImage" />
        <cc:license
           rdf:resource="http://creativecommons.org/publicdomain/zero/1.0/" />
        <dc:publisher>
          <cc:Agent
             rdf:about="http://openclipart.org/">
            <dc:title>Openclipart</dc:title>
          </cc:Agent>
        </dc:publisher>
        <dc:title></dc:title>
      </cc:Work>
      <cc:License
         rdf:about="http://creativecommons.org/publicdomain/zero/1.0/">
        <cc:permits
           rdf:resource="http://creativecommons.org/ns#Reproduction" />
        <cc:permits
           rdf:resource="http://creativecommons.org/ns#Distribution" />
        <cc:permits
           rdf:resource="http://creativecommons.org/ns#DerivativeWorks" />
      </cc:License>
    </rdf:RDF>
  </metadata>
</svg>
